PathFileType	4	(X/Y/Z)	C:\Users\Basilio\Documents\Thesis Gigler\squatting_fais\c3dfiles\041\SJ_pre1\markers_experimental.trc
DataRate	CameraRate	NumFrames	NumMarkers	Units	OrigDataRate	OrigDataStartFrame	OrigNumFrames
200.000000	200.000000	4	62	mm	200.000000	0	1270
Frame#	Time	FHD			LBHD			RBHD			C7			T10			CLAV			LSHO			LUUPA			LMUPA			LDUPA			LLEP			LMEP			LRAD			LUL			LRFIN			RSHO			RUPA1			RMUPA			RDUPA			RLEP			RMEP			RRAD			RUL			RUFIN			LASI			RASI			USACR			LSACR			RSACR			LTHI1			LTHI2			LTHI3			LTHI4			LLFC			LMFC			LTIB1			LTIB2			LTIB3			LTIB4			LLMAL			LMMAL			LHEE			LMT1			LMT2			LMT5			RTHI			RTHI2			RTHI3			RTHI4			RLFC			RMFC			RTIB1			RTIB2			RTIB3			RTIB4			RLMAL			RMMAL			RHEE			RMT1			RMT2			RMT5			*61			
		X1	Y1	Z1	X2	Y2	Z2	X3	Y3	Z3	X4	Y4	Z4	X5	Y5	Z5	X6	Y6	Z6	X7	Y7	Z7	X8	Y8	Z8	X9	Y9	Z9	X10	Y10	Z10	X11	Y11	Z11	X12	Y12	Z12	X13	Y13	Z13	X14	Y14	Z14	X15	Y15	Z15	X16	Y16	Z16	X17	Y17	Z17	X18	Y18	Z18	X19	Y19	Z19	X20	Y20	Z20	X21	Y21	Z21	X22	Y22	Z22	X23	Y23	Z23	X24	Y24	Z24	X25	Y25	Z25	X26	Y26	Z26	X27	Y27	Z27	X28	Y28	Z28	X29	Y29	Z29	X30	Y30	Z30	X31	Y31	Z31	X32	Y32	Z32	X33	Y33	Z33	X34	Y34	Z34	X35	Y35	Z35	X36	Y36	Z36	X37	Y37	Z37	X38	Y38	Z38	X39	Y39	Z39	X40	Y40	Z40	X41	Y41	Z41	X42	Y42	Z42	X43	Y43	Z43	X44	Y44	Z44	X45	Y45	Z45	X46	Y46	Z46	X47	Y47	Z47	X48	Y48	Z48	X49	Y49	Z49	X50	Y50	Z50	X51	Y51	Z51	X52	Y52	Z52	X53	Y53	Z53	X54	Y54	Z54	X55	Y55	Z55	X56	Y56	Z56	X57	Y57	Z57	X58	Y58	Z58	X59	Y59	Z59	X60	Y60	Z60	X61	Y61	Z61	X62	Y62	Z62	

1	0	-115.3953933715821	1667.850341796875	-875.203308105469	-299.4844360351563	1687.275756835938	-958.6594848632815	-285.9535827636719	1679.987182617188	-805.0327758789065	-395.9774169921876	1534.572387695313	-895.8925781250002	-460.4776000976564	1216.280639648438	-897.3021240234377	-253.6622161865235	1448.843505859375	-895.5684814453127	-318.4396667480469	1518.707885742188	-1067.349731445313	-407.4106445312501	1401.082641601563	-1203.37841796875	-394.6118774414064	1352.30029296875	-1204.848754882813	-442.183074951172	1356.1708984375	-1243.443725585938	-464.2407226562501	1313.186767578125	-1267.57275390625	-521.8468627929689	1281.5673828125	-1201.881591796875	-391.3845214843751	1106.263549804688	-1110.050415039063	-385.0247497558595	1066.973999023438	-1173.181518554688	-342.4410705566407	1078.3837890625	-1076.838989257813	-315.2959899902344	1511.317504882813	-724.9501953125001	-427.1436462402345	1387.74658203125	-578.1124267578126	-389.6792907714845	1353.42626953125	-574.1976928710939	-427.829315185547	1328.382202148438	-538.4874877929689	-434.1558837890626	1281.344848632813	-520.0206298828126	-500.7647705078126	1262.994018554688	-584.2593994140626	-402.3094177246095	1083.492431640625	-683.7968750000001	-354.7377319335938	1067.8486328125	-721.9585571289064	-382.1956787109376	1041.3671875	-623.1372070312501	-296.5988769531251	1019.218505859375	-1010.972290039063	-299.2467956542969	1012.913208007813	-788.1108398437502	-474.9002380371095	1097.385498046875	-900.9432373046877	-490.9726867675782	1071.914184570313	-927.7567138671877	-497.3301086425782	1072.529907226563	-874.3638305664065	-421.1140441894532	821.4309692382815	-1099.235229492188	-381.5565185546876	746.8333129882814	-1107.847290039063	-333.9740905761719	752.6235351562501	-1098.813110351563	-406.1636047363282	690.7609863281251	-1099.95947265625	-371.5246887207032	514.1000366210939	-1108.647583007813	-355.5208129882813	481.3952636718751	-994.231872558594	-332.8515625000001	318.3670043945313	-1080.477661132813	-381.8037414550782	283.4307861328126	-1146.418823242188	-344.5356445312501	277.2989501953126	-1123.247314453125	-340.8193969726563	196.2180786132813	-1100.590576171875	-398.6262512207032	100.6554489135742	-1152.734008789063	-354.1679992675782	105.6319656372071	-1072.492797851563	-452.538543701172	52.46477127075197	-1112.109252929688	-234.5925598144532	64.12530517578126	-1098.86767578125	-231.1834564208985	63.39012908935548	-1144.335571289063	-275.0786132812501	37.58129882812501	-1196.6005859375	-409.1020812988282	760.9708862304689	-703.5095214843751	-366.8173217773438	710.6466064453126	-694.4550170898439	-334.0055847167969	714.9989624023439	-698.1693115234376	-386.3343200683595	628.4580078125001	-705.2205200195314	-366.5317382812501	504.5108642578126	-693.4230346679689	-345.4924926757813	477.454315185547	-808.6816406250002	-327.7695922851563	337.2784729003907	-687.2540283203126	-410.4057006835939	262.0864562988282	-666.7983398437501	-363.2239379882813	260.0376892089844	-667.3617553710939	-339.9323120117188	209.8568420410157	-689.7914428710939	-393.6524047851564	92.09610748291017	-665.9627075195314	-361.4367980957032	105.5180969238282	-746.4874267578126	-447.1411132812501	48.38403320312501	-718.7371826171876	-230.5008850097657	58.24216461181642	-715.5523681640626	-232.0635528564454	62.11872482299806	-664.0128784179689	-275.8998413085938	39.72248077392579	-618.1085815429689	-4216.651855468751	853.0950927734377	-3944.856201171876	
2	0.005	-116.6046371459961	1669.8525390625	-874.7099609375002	-300.9365844726563	1687.218505859375	-958.062438964844	-287.3876342773438	1679.9775390625	-804.4800415039065	-396.1446838378907	1534.412963867188	-895.3317871093752	-460.1530761718751	1216.149169921875	-896.7143554687502	-253.5518341064454	1448.975219726563	-894.8276977539065	-318.4151000976563	1518.694458007813	-1066.723022460938	-407.2090148925782	1400.968505859375	-1202.899780273438	-394.4333496093751	1352.157470703125	-1204.294311523438	-441.8484497070314	1356.062622070313	-1243.031005859375	-463.7518310546876	1312.990844726563	-1267.125	-521.4534912109376	1281.3486328125	-1201.5087890625	-391.2699279785157	1106.019409179688	-1109.588012695313	-384.8002014160157	1066.690307617188	-1172.8037109375	-342.1736450195313	1078.16552734375	-1076.452026367188	-315.2705078125001	1511.272705078125	-724.3708496093751	-426.9583129882814	1387.45068359375	-577.4542236328126	-389.3999328613282	1353.14404296875	-573.5264282226564	-427.6491699218751	1328.11181640625	-537.9183959960939	-434.0543518066407	1280.831665039063	-518.9880371093751	-500.4504394531251	1262.72900390625	-583.7383422851564	-402.0890197753907	1083.244995117188	-683.3885498046876	-354.4518737792969	1067.529296875	-721.4648437500001	-381.8051147460938	1040.979370117188	-622.7547607421876	-296.3433227539063	1019.161193847656	-1010.662231445313	-299.0706176757813	1012.682739257813	-787.7731933593752	-474.764617919922	1097.4033203125	-900.5296630859377	-490.754608154297	1071.92578125	-927.3560791015627	-497.090545654297	1072.506225585938	-873.9936523437502	-421.0903320312501	821.3955078125002	-1098.86328125	-381.3813171386719	746.8737182617189	-1107.57275390625	-333.8752746582032	752.6877441406251	-1098.626586914063	-405.9529418945314	690.7497558593751	-1099.702270507813	-371.1563720703126	514.1101074218751	-1108.614990234375	-354.9928894042969	481.2824096679689	-994.2747802734377	-332.5997009277344	318.3818664550782	-1080.500366210938	-381.7169494628907	283.4282226562501	-1146.434692382813	-344.4499511718751	277.3159484863282	-1123.176391601563	-340.7978515625001	196.2348327636719	-1100.61083984375	-398.7136840820314	100.5739059448242	-1152.714965820313	-354.1912231445313	105.6823883056641	-1072.605590820313	-452.5468139648439	52.42881011962892	-1112.170776367188	-234.8377532958985	64.40477752685548	-1098.888793945313	-231.1505279541016	63.53973770141603	-1144.336059570313	-275.4088745117188	37.17695999145509	-1195.938842773438	-409.0320434570314	760.9036254882814	-703.3129882812501	-366.6694641113282	710.5857543945314	-694.1622314453126	-333.9342956542969	714.9082031250001	-697.8289184570314	-386.2241516113282	628.3958129882814	-705.0151977539064	-366.5811462402344	504.2732849121095	-693.3759765625001	-346.2233581542969	477.8251037597657	-808.6419067382815	-327.6574401855469	337.1913452148438	-687.1330566406251	-410.212127685547	261.9174804687501	-666.7786254882814	-363.1900634765626	259.9761047363282	-667.2979125976564	-339.8722534179688	209.7579193115235	-689.7403564453126	-393.4863281250001	92.02687072753908	-666.0498046875001	-361.2999572753907	105.3822021484375	-746.4743041992189	-447.1032714843751	48.41741180419923	-718.7387084960939	-230.5487365722657	57.75790405273439	-715.5316772460939	-231.4452514648438	62.3305130004883	-663.5569458007814	-275.8845825195313	39.59039688110352	-617.9642333984376	-4216.646484375001	853.152770996094	-3944.863525390626	
3	0.01	-117.9829330444336	1671.625	-873.9787597656252	-302.3532104492188	1687.1455078125	-957.498229980469	-288.6140747070313	1680.06689453125	-803.9567871093752	-396.3536682128907	1534.321166992188	-894.8394775390627	-459.8336791992189	1216.080444335938	-896.2321777343752	-253.5574645996094	1449.228149414063	-894.2610473632815	-318.4069213867188	1518.688720703125	-1066.196411132813	-406.9530029296876	1400.869873046875	-1202.3603515625	-394.1932983398439	1352.03564453125	-1203.725830078125	-441.4565734863282	1355.97265625	-1242.569580078125	-463.3706359863282	1312.81884765625	-1266.719970703125	-520.9553222656251	1281.362182617188	-1201.126708984375	-391.0382385253907	1105.774780273438	-1109.215209960938	-384.4693908691407	1066.448852539063	-1172.405151367188	-341.8174743652344	1078.010620117188	-1076.046875	-315.2796630859376	1511.22998046875	-723.7661132812501	-426.9825744628907	1387.066162109375	-577.0747070312501	-389.3919982910157	1353.054565429688	-573.3873291015626	-427.3634338378907	1327.839477539063	-537.4357910156251	-433.5749511718751	1280.391967773438	-518.4550781250001	-500.1138305664064	1262.452758789063	-583.1572875976564	-401.8200073242189	1082.972778320313	-682.8958129882814	-354.0508422851563	1067.220825195313	-721.0061035156251	-381.6014709472657	1040.71142578125	-622.3426513671876	-296.1564331054688	1019.063781738281	-1010.168273925781	-298.7981567382813	1012.4453125	-787.333679199219	-474.5346679687501	1097.406494140625	-900.0518798828127	-490.4866333007814	1071.949829101563	-926.9917602539065	-496.8937988281251	1072.4892578125	-873.6189575195315	-421.0420227050782	821.442321777344	-1098.493774414063	-381.2538146972657	746.8830566406251	-1107.306640625	-333.7756042480469	752.7354736328126	-1098.426147460938	-405.7650451660157	690.9376831054689	-1099.379272460938	-370.7305908203126	514.1132202148439	-1108.55859375	-354.2455139160157	481.2667541503907	-994.400573730469	-332.4102783203126	318.3026733398438	-1080.504272460938	-381.5942077636719	283.4067993164063	-1146.415161132813	-344.2265014648438	277.2363281250001	-1123.176391601563	-340.6488037109376	196.2156829833985	-1100.693603515625	-398.7427062988282	100.6636581420899	-1152.857543945313	-354.1849975585938	105.7677154541016	-1072.703002929688	-452.3234863281251	52.04980087280275	-1112.322265625	-234.8884582519532	64.69534301757814	-1098.84228515625	-231.3133087158204	63.88261032104494	-1144.345336914063	-275.1571350097657	37.70972442626954	-1196.436279296875	-408.9938049316407	760.8670043945314	-703.1245727539064	-366.5382385253907	710.5076293945314	-693.9537353515626	-333.8924560546876	714.8670043945314	-697.4673461914064	-386.0557556152345	628.3238525390626	-704.7955932617189	-366.5321350097657	504.1385192871095	-693.2578735351564	-345.1547241210938	477.3594665527345	-808.2537841796877	-327.5170288085938	337.0691833496094	-686.9962768554689	-410.1204833984376	261.7892761230469	-666.7633666992189	-363.1324768066407	259.8424682617188	-667.2136230468751	-339.6651000976563	209.6910705566407	-689.7778320312501	-393.3879699707032	91.99208068847658	-666.1412963867189	-361.2129821777344	105.0685348510742	-746.1931762695314	-447.0609741210939	48.48019027709962	-718.7861938476564	-230.4894409179688	57.3030242919922	-715.5006103515626	-231.8567504882813	61.57320404052736	-663.9667358398439	-275.8541259765626	39.44364166259766	-617.8091430664064	-4216.593261718751	853.098815917969	-3944.715087890626	
4	0.015	-118.9955596923828	1673.511840820313	-873.4249267578127	-303.7745666503907	1687.066528320313	-956.8792114257815	-290.1295776367188	1680.070068359375	-803.278015136719	-396.5217895507814	1534.213256835938	-894.333923339844	-459.5450439453126	1215.969604492188	-895.7358398437502	-253.3462219238282	1449.425415039063	-893.8306274414065	-318.4047546386719	1518.638549804688	-1065.645874023438	-406.7363891601564	1400.756713867188	-1201.86865234375	-393.9504394531251	1351.949829101563	-1203.209716796875	-441.1329345703126	1355.85888671875	-1242.134765625	-462.9006652832032	1312.64208984375	-1266.29443359375	-520.5085449218751	1281.17724609375	-1200.732421875	-390.831268310547	1105.527099609375	-1108.805419921875	-384.188201904297	1066.220703125	-1171.995483398438	-341.5069274902344	1077.747314453125	-1075.715209960938	-315.2986450195313	1511.162231445313	-723.0100097656251	-426.7457885742189	1386.883911132813	-576.5259399414064	-389.1436462402345	1352.83251953125	-572.8359375000001	-427.0791625976564	1327.59619140625	-536.8915405273439	-433.0816955566407	1279.711669921875	-517.8759765625001	-499.8075561523439	1262.103149414063	-582.6304931640626	-401.3964843750001	1082.677124023438	-682.3690185546876	-353.7633361816407	1066.824584960938	-720.6010742187501	-381.2764587402344	1040.439819335938	-621.9210205078126	-296.0124206542969	1018.924255371094	-1009.76513671875	-298.5894775390626	1012.229919433594	-786.902770996094	-474.192352294922	1097.4169921875	-899.5938110351565	-490.3163452148439	1072.001708984375	-926.601745605469	-496.6358337402345	1072.486206054688	-873.2467041015627	-420.9663391113282	821.4461059570315	-1098.098754882813	-381.2102661132813	747.0793457031251	-1107.14453125	-333.5752258300782	752.6968994140626	-1098.128662109375	-405.6611938476564	690.9057617187501	-1099.182861328125	-370.4126892089844	514.1614990234376	-1108.526733398438	-353.6927795410157	481.320037841797	-994.360534667969	-332.1537475585938	318.3090515136719	-1080.536376953125	-381.4353332519532	283.4609985351563	-1146.370483398438	-344.0011901855469	277.2670593261719	-1123.249633789063	-340.5234985351563	196.1696166992188	-1100.742797851563	-398.8486633300782	100.6747283935547	-1152.956787109375	-354.2206726074219	105.8970413208008	-1072.792602539063	-452.7423400878907	52.390682220459	-1112.142822265625	-234.9663085937501	65.0332717895508	-1098.787963867188	-231.4181518554688	64.17909240722658	-1144.363159179688	-275.1899108886719	37.80152130126954	-1196.350830078125	-408.8305969238282	760.8111572265626	-702.9624023437501	-366.4576721191407	710.4704589843751	-693.7233276367189	-333.8693542480469	714.7277832031251	-697.1702880859376	-385.9617004394532	628.2567749023439	-704.6056518554689	-366.4307250976563	504.2137756347657	-693.0330200195314	-345.8770446777344	477.7877807617189	-808.2662353515627	-327.4456176757813	336.9773864746094	-686.8364257812501	-409.9827880859376	261.6898193359376	-666.8311157226564	-363.0583496093751	259.7549133300782	-667.1336059570314	-339.5848388671876	209.6452178955079	-689.7410278320314	-393.2660522460939	92.00321197509767	-666.1896972656251	-361.0349731445313	104.962875366211	-746.2239379882814	-446.9813537597657	48.53179168701173	-718.8157958984376	-230.3207244873047	56.90324020385744	-715.4852294921876	-231.7751007080079	61.20627975463869	-663.9221801757814	-276.0195007324219	39.60417175292969	-617.5599975585939	-4216.569335937501	853.1027832031252	-3944.870117187501	
